<svg width="0" height="0" class="hidden">
    <symbol xmlns="http://www.w3.org/2000/svg" viewBox="0 0 24 24" fill="none" id="pencil">
        <path d="M21 20.9998H13M2.5 21.4998L8.04927 19.3655C8.40421 19.229 8.58168 19.1607 8.74772 19.0716C8.8952 18.9924 9.0358 18.901 9.16804 18.7984C9.31692 18.6829 9.45137 18.5484 9.72028 18.2795L21 6.99982C22.1046 5.89525 22.1046 4.10438 21 2.99981C19.8955 1.89525 18.1046 1.89524 17 2.99981L5.72028 14.2795C5.45138 14.5484 5.31692 14.6829 5.20139 14.8318C5.09877 14.964 5.0074 15.1046 4.92823 15.2521C4.83911 15.4181 4.77085 15.5956 4.63433 15.9506L2.5 21.4998ZM2.5 21.4998L4.55812 16.1488C4.7054 15.7659 4.77903 15.5744 4.90534 15.4867C5.01572 15.4101 5.1523 15.3811 5.2843 15.4063C5.43533 15.4351 5.58038 15.5802 5.87048 15.8703L8.12957 18.1294C8.41967 18.4195 8.56472 18.5645 8.59356 18.7155C8.61877 18.8475 8.58979 18.9841 8.51314 19.0945C8.42545 19.2208 8.23399 19.2944 7.85107 19.4417L2.5 21.4998Z" stroke-width="2" stroke-linecap="round" stroke-linejoin="round"/>
    </symbol>
    <symbol fill="none" xmlns="http://www.w3.org/2000/svg" viewBox="0 0 24 24" id="circle">
        <path d="M12 22C17.5228 22 22 17.5228 22 12C22 6.47715 17.5228 2 12 2C6.47715 2 2 6.47715 2 12C2 17.5228 6.47715 22 12 22Z" stroke-width="2" stroke-linecap="round" stroke-linejoin="round"/>
    </symbol>
    <symbol fill="none" xmlns="http://www.w3.org/2000/svg" viewBox="0 0 24 24" id="square">
        <path d="M3 7.8C3 6.11984 3 5.27976 3.32698 4.63803C3.6146 4.07354 4.07354 3.6146 4.63803 3.32698C5.27976 3 6.11984 3 7.8 3H16.2C17.8802 3 18.7202 3 19.362 3.32698C19.9265 3.6146 20.3854 4.07354 20.673 4.63803C21 5.27976 21 6.11984 21 7.8V16.2C21 17.8802 21 18.7202 20.673 19.362C20.3854 19.9265 19.9265 20.3854 19.362 20.673C18.7202 21 17.8802 21 16.2 21H7.8C6.11984 21 5.27976 21 4.63803 20.673C4.07354 20.3854 3.6146 19.9265 3.32698 19.362C3 18.7202 3 17.8802 3 16.2V7.8Z" stroke-width="2" stroke-linecap="round" stroke-linejoin="round"/>
    </symbol>
    <symbol xmlns="http://www.w3.org/2000/svg" viewBox="0 0 24 24" fill="none" id="eraser">
        <path d="M17.9995 13L10.9995 6.00004M20.9995 21H7.99955M10.9368 20.0628L19.6054 11.3941C20.7935 10.2061 21.3875 9.61207 21.6101 8.92709C21.8058 8.32456 21.8058 7.67551 21.6101 7.07298C21.3875 6.388 20.7935 5.79397 19.6054 4.60592L19.3937 4.39415C18.2056 3.2061 17.6116 2.61207 16.9266 2.38951C16.3241 2.19373 15.675 2.19373 15.0725 2.38951C14.3875 2.61207 13.7935 3.2061 12.6054 4.39415L4.39366 12.6059C3.20561 13.794 2.61158 14.388 2.38902 15.073C2.19324 15.6755 2.19324 16.3246 2.38902 16.9271C2.61158 17.6121 3.20561 18.2061 4.39366 19.3941L5.06229 20.0628C5.40819 20.4087 5.58114 20.5816 5.78298 20.7053C5.96192 20.815 6.15701 20.8958 6.36108 20.9448C6.59126 21 6.83585 21 7.32503 21H8.67406C9.16324 21 9.40784 21 9.63801 20.9448C9.84208 20.8958 10.0372 20.815 10.2161 20.7053C10.418 20.5816 10.5909 20.4087 10.9368 20.0628Z" stroke-width="2" stroke-linecap="round" stroke-linejoin="round"/>
    </symbol>
    <symbol xmlns="http://www.w3.org/2000/svg" viewBox="0 0 24 24" fill="none" id="select">
        <path d="M20.5056 10.7754C21.1225 10.5355 21.431 10.4155 21.5176 10.2459C21.5926 10.099 21.5903 9.92446 21.5115 9.77954C21.4205 9.61226 21.109 9.50044 20.486 9.2768L4.59629 3.5728C4.0866 3.38983 3.83175 3.29835 3.66514 3.35605C3.52029 3.40621 3.40645 3.52004 3.35629 3.6649C3.29859 3.8315 3.39008 4.08635 3.57304 4.59605L9.277 20.4858C9.50064 21.1088 9.61246 21.4203 9.77973 21.5113C9.92465 21.5901 10.0991 21.5924 10.2461 21.5174C10.4157 21.4308 10.5356 21.1223 10.7756 20.5054L13.3724 13.8278C13.4194 13.707 13.4429 13.6466 13.4792 13.5957C13.5114 13.5506 13.5508 13.5112 13.5959 13.479C13.6468 13.4427 13.7072 13.4192 13.828 13.3722L20.5056 10.7754Z" stroke="black" stroke-width="2" stroke-linecap="round" stroke-linejoin="round"/>
    </symbol>
</svg>